<?xml version="1.0" encoding="utf-8"?>
<!-- Generator: Adobe Illustrator 19.0.0, SVG Export Plug-In . SVG Version: 6.00 Build 0)  -->
<svg version="1.1" id="Layer_1" xmlns="http://www.w3.org/2000/svg" xmlns:xlink="http://www.w3.org/1999/xlink" x="0px" y="0px"
	 viewBox="-244.8 244.5 70.5 69.8" style="enable-background:new -244.8 244.5 70.5 69.8;" xml:space="preserve">
<path d="M-209,307.3c15.6,0,28.3-12.7,28.3-28.3c0-15.6-12.7-28.3-28.3-28.3s-28.3,12.7-28.3,28.3
	C-237.3,294.6-224.6,307.3-209,307.3z M-236.8,279c0-15.3,12.5-27.8,27.8-27.8s27.8,12.5,27.8,27.8c0,4.5-1.1,8.7-2.9,12.4
	c-3.7-7-10.1-12.1-17.7-14.1c2.3-2,3.8-5,3.8-8.3c0-6-4.9-11-11-11s-11,4.9-11,11c0,3.3,1.5,6.3,3.8,8.3c-7.6,2-14,7.1-17.7,14.1
	C-235.7,287.7-236.8,283.4-236.8,279z M-209,279.4c-5.8,0-10.5-4.7-10.5-10.5s4.7-10.5,10.5-10.5s10.5,4.7,10.5,10.5
	S-203.2,279.4-209,279.4z M-233.6,291.9c3.6-7.2,10.1-12.3,17.9-14.3c1.9,1.4,4.2,2.3,6.7,2.3c2.5,0,4.8-0.9,6.7-2.3
	c7.8,1.9,14.3,7.1,17.9,14.3c-4.7,8.8-13.9,14.8-24.6,14.8C-219.6,306.8-228.9,300.7-233.6,291.9z"/>
</svg>
