<?xml version="1.0" encoding="utf-8"?>
<!-- Generator: Adobe Illustrator 19.0.0, SVG Export Plug-In . SVG Version: 6.00 Build 0)  -->
<svg version="1.1" id="Layer_1" xmlns="http://www.w3.org/2000/svg" xmlns:xlink="http://www.w3.org/1999/xlink" x="0px" y="0px"
	 viewBox="-177 178.4 70.5 69.8" style="enable-background:new -177 178.4 70.5 69.8;" xml:space="preserve">
<style type="text/css">
	.st0{fill:none;}
	.st1{fill:#FFFFFF;}
</style>
<path class="st0" d="M-142.9,241.6c15.6,0,28.3-12.7,28.3-28.3c0-15.6-12.7-28.3-28.3-28.3s-28.3,12.7-28.3,28.3
	S-158.5,241.6-142.9,241.6z M-142.9,213.7c-5.8,0-10.5-4.7-10.5-10.5s4.7-10.5,10.5-10.5s10.5,4.7,10.5,10.5
	S-137.1,213.7-142.9,213.7z M-167.5,226.2c3.6-7.2,10.1-12.3,17.9-14.3c1.9,1.4,4.2,2.3,6.7,2.3s4.8-0.9,6.7-2.3
	c7.8,1.9,14.3,7.1,17.9,14.3c-4.7,8.8-13.9,14.8-24.6,14.8C-153.5,241.1-162.8,235-167.5,226.2z"/>
<g id="XMLID_2_">
	<g>
		<path class="st1" d="M-115.1,213.3c0,4.5-1.1,8.7-2.9,12.4c-3.7-7-10.1-12.1-17.7-14.1c2.3-2,3.8-5,3.8-8.3c0-6-4.9-11-11-11
			c-6.1,0-11,4.9-11,11c0,3.3,1.5,6.3,3.8,8.3c-7.6,2-14,7.1-17.7,14.1c-1.8-3.7-2.9-8-2.9-12.4c0-15.3,12.5-27.8,27.8-27.8
			S-115.1,198-115.1,213.3z"/>
	</g>
	<g>
	</g>
</g>
</svg>
